<svg xmlns="http://www.w3.org/2000/svg" xmlns:xlink="http://www.w3.org/1999/xlink" width="500" zoomAndPan="magnify" viewBox="0 0 375 374.999991" height="500" preserveAspectRatio="xMidYMid meet" version="1.0"><defs><g/><clipPath id="3c784e9541"><path d="M 131 181.25 L 180.230469 181.25 L 180.230469 203 L 131 203 Z M 131 181.25 " clip-rule="nonzero"/></clipPath><clipPath id="3dfa89af16"><path d="M 126.230469 202 L 176 202 L 176 223.25 L 126.230469 223.25 Z M 126.230469 202 " clip-rule="nonzero"/></clipPath></defs><g clip-path="url(#3c784e9541)"><path fill="#000000" d="M 131.246094 202.246094 L 139.359375 202.246094 L 145.746094 194.171875 L 137.632812 194.171875 Z M 172.136719 181.25 L 155.164062 202.246094 L 163.273438 202.246094 L 180.25 181.25 Z M 155.886719 186.523438 L 143.207031 202.246094 L 151.316406 202.246094 L 163.996094 186.523438 L 155.886719 186.523438 " fill-opacity="1" fill-rule="nonzero"/></g><g clip-path="url(#3dfa89af16)"><path fill="#0d52ba" d="M 175.234375 202.246094 L 167.121094 202.246094 L 160.734375 210.324219 L 168.847656 210.324219 Z M 134.34375 223.246094 L 151.316406 202.246094 L 143.207031 202.246094 L 126.230469 223.246094 Z M 150.59375 217.972656 L 163.273438 202.246094 L 155.164062 202.246094 L 142.484375 217.972656 L 150.59375 217.972656 " fill-opacity="1" fill-rule="nonzero"/></g><g fill="#000000" fill-opacity="1"><g transform="translate(180.062526, 202.491666)"><g><path d="M 3.171875 -1.609375 L 7.734375 -1.609375 L 7.734375 0 L 1.390625 0 L 1.390625 -10.546875 L 3.171875 -10.546875 Z M 3.171875 -1.609375 "/></g></g></g><g fill="#000000" fill-opacity="1"><g transform="translate(188.116351, 202.491666)"><g><path d="M 8.921875 -8.953125 L 3.171875 -8.953125 L 3.171875 -6.109375 L 8.328125 -6.109375 L 8.328125 -4.515625 L 3.171875 -4.515625 L 3.171875 -1.59375 L 9.109375 -1.59375 L 9.109375 0 L 1.390625 0 L 1.390625 -10.546875 L 8.921875 -10.546875 Z M 8.921875 -8.953125 "/></g></g></g><g fill="#000000" fill-opacity="1"><g transform="translate(198.010179, 202.491666)"><g><path d="M 8.609375 -5.1875 L 10.15625 -5.1875 L 10.15625 -1.296875 C 9.613281 -0.878906 8.972656 -0.546875 8.234375 -0.296875 C 7.492188 -0.046875 6.769531 0.078125 6.0625 0.078125 C 4.5 0.078125 3.179688 -0.4375 2.109375 -1.46875 C 1.046875 -2.5 0.515625 -3.765625 0.515625 -5.265625 C 0.515625 -6.773438 1.054688 -8.039062 2.140625 -9.0625 C 3.222656 -10.082031 4.566406 -10.59375 6.171875 -10.59375 C 6.910156 -10.59375 7.640625 -10.457031 8.359375 -10.1875 C 9.078125 -9.925781 9.695312 -9.570312 10.21875 -9.125 L 9.21875 -7.8125 C 8.351562 -8.613281 7.335938 -9.015625 6.171875 -9.015625 C 5.085938 -9.015625 4.175781 -8.648438 3.4375 -7.921875 C 2.695312 -7.203125 2.328125 -6.320312 2.328125 -5.28125 C 2.328125 -4.21875 2.695312 -3.320312 3.4375 -2.59375 C 4.1875 -1.875 5.101562 -1.515625 6.1875 -1.515625 C 7 -1.515625 7.804688 -1.757812 8.609375 -2.25 Z M 8.609375 -5.1875 "/></g></g></g><g fill="#000000" fill-opacity="1"><g transform="translate(209.306642, 202.491666)"><g><path d="M 8.203125 -2.375 L 2.875 -2.375 L 1.875 0 L 0.015625 0 L 4.671875 -10.546875 L 6.5 -10.546875 L 11.109375 0 L 9.21875 0 Z M 7.53125 -3.96875 L 5.53125 -8.65625 L 3.546875 -3.96875 Z M 7.53125 -3.96875 "/></g></g></g><g fill="#000000" fill-opacity="1"><g transform="translate(220.437199, 202.491666)"><g><path d="M 6.0625 -10.59375 C 6.800781 -10.59375 7.523438 -10.445312 8.234375 -10.15625 C 8.941406 -9.875 9.554688 -9.476562 10.078125 -8.96875 L 9.03125 -7.671875 C 8.644531 -8.085938 8.191406 -8.414062 7.671875 -8.65625 C 7.148438 -8.894531 6.625 -9.015625 6.09375 -9.015625 C 5.039062 -9.015625 4.148438 -8.65625 3.421875 -7.9375 C 2.691406 -7.21875 2.328125 -6.34375 2.328125 -5.3125 C 2.328125 -4.257812 2.691406 -3.375 3.421875 -2.65625 C 4.148438 -1.9375 5.039062 -1.578125 6.09375 -1.578125 C 7.1875 -1.578125 8.164062 -1.992188 9.03125 -2.828125 L 10.09375 -1.65625 C 9.539062 -1.125 8.90625 -0.703125 8.1875 -0.390625 C 7.46875 -0.078125 6.738281 0.078125 6 0.078125 C 4.445312 0.078125 3.144531 -0.4375 2.09375 -1.46875 C 1.039062 -2.5 0.515625 -3.773438 0.515625 -5.296875 C 0.515625 -6.785156 1.046875 -8.039062 2.109375 -9.0625 C 3.179688 -10.082031 4.5 -10.59375 6.0625 -10.59375 Z M 6.0625 -10.59375 "/></g></g></g><g fill="#000000" fill-opacity="1"><g transform="translate(230.949398, 202.491666)"><g><path d="M 5.71875 -3.515625 L 5.71875 0 L 3.953125 0 L 3.953125 -3.453125 L 0.015625 -10.546875 L 1.8125 -10.546875 L 4.828125 -5.40625 L 7.78125 -10.546875 L 9.59375 -10.546875 Z M 5.71875 -3.515625 "/></g></g></g><g fill="#000000" fill-opacity="1"><g transform="translate(240.556666, 202.491666)"><g/></g></g><g fill="#000000" fill-opacity="1"><g transform="translate(244.44784, 202.491666)"><g><path d="M 1.390625 -10.546875 L 5.59375 -10.546875 C 6.914062 -10.546875 7.941406 -10.234375 8.671875 -9.609375 C 9.398438 -8.984375 9.765625 -8.097656 9.765625 -6.953125 C 9.765625 -5.753906 9.398438 -4.828125 8.671875 -4.171875 C 7.941406 -3.515625 6.914062 -3.1875 5.59375 -3.1875 L 3.171875 -3.1875 L 3.171875 0 L 1.390625 0 Z M 3.171875 -8.953125 L 3.171875 -4.78125 L 5.515625 -4.78125 C 7.210938 -4.78125 8.0625 -5.488281 8.0625 -6.90625 C 8.0625 -8.269531 7.210938 -8.953125 5.515625 -8.953125 Z M 3.171875 -8.953125 "/></g></g></g><g fill="#000000" fill-opacity="1"><g transform="translate(254.598062, 202.491666)"><g><path d="M 8.203125 -2.375 L 2.875 -2.375 L 1.875 0 L 0.015625 0 L 4.671875 -10.546875 L 6.5 -10.546875 L 11.109375 0 L 9.21875 0 Z M 7.53125 -3.96875 L 5.53125 -8.65625 L 3.546875 -3.96875 Z M 7.53125 -3.96875 "/></g></g></g><g fill="#000000" fill-opacity="1"><g transform="translate(265.72862, 202.491666)"><g><path d="M 8.59375 -8.953125 L 5.25 -8.953125 L 5.25 0 L 3.46875 0 L 3.46875 -8.953125 L 0.140625 -8.953125 L 0.140625 -10.546875 L 8.59375 -10.546875 Z M 8.59375 -8.953125 "/></g></g></g><g fill="#000000" fill-opacity="1"><g transform="translate(274.461136, 202.491666)"><g><path d="M 10.546875 0 L 8.765625 0 L 8.765625 -4.375 L 3.171875 -4.375 L 3.171875 0 L 1.390625 0 L 1.390625 -10.546875 L 3.171875 -10.546875 L 3.171875 -5.96875 L 8.765625 -5.96875 L 8.765625 -10.546875 L 10.546875 -10.546875 Z M 10.546875 0 "/></g></g></g><g fill="#000000" fill-opacity="1"><g transform="translate(180.776177, 214.735503)"><g><path d="M 4.640625 -8.125 C 5.210938 -8.125 5.769531 -8.015625 6.3125 -7.796875 C 6.863281 -7.578125 7.332031 -7.269531 7.71875 -6.875 L 6.921875 -5.890625 C 6.628906 -6.203125 6.28125 -6.453125 5.875 -6.640625 C 5.476562 -6.828125 5.078125 -6.921875 4.671875 -6.921875 C 3.859375 -6.921875 3.171875 -6.644531 2.609375 -6.09375 C 2.054688 -5.539062 1.78125 -4.863281 1.78125 -4.0625 C 1.78125 -3.269531 2.054688 -2.597656 2.609375 -2.046875 C 3.171875 -1.492188 3.859375 -1.21875 4.671875 -1.21875 C 5.515625 -1.21875 6.265625 -1.535156 6.921875 -2.171875 L 7.734375 -1.265625 C 7.316406 -0.859375 6.832031 -0.535156 6.28125 -0.296875 C 5.726562 -0.0546875 5.171875 0.0625 4.609375 0.0625 C 3.421875 0.0625 2.421875 -0.332031 1.609375 -1.125 C 0.796875 -1.914062 0.390625 -2.894531 0.390625 -4.0625 C 0.390625 -5.207031 0.800781 -6.171875 1.625 -6.953125 C 2.445312 -7.734375 3.453125 -8.125 4.640625 -8.125 Z M 4.640625 -8.125 "/></g></g></g><g fill="#000000" fill-opacity="1"><g transform="translate(190.182534, 214.735503)"><g><path d="M 6.296875 -1.828125 L 2.203125 -1.828125 L 1.4375 0 L 0.015625 0 L 3.578125 -8.09375 L 4.984375 -8.09375 L 8.515625 0 L 7.0625 0 Z M 5.765625 -3.046875 L 4.25 -6.640625 L 2.71875 -3.046875 Z M 5.765625 -3.046875 "/></g></g></g><g fill="#000000" fill-opacity="1"><g transform="translate(200.06263, 214.735503)"><g><path d="M 1.0625 -8.09375 L 4.296875 -8.09375 C 5.304688 -8.09375 6.09375 -7.851562 6.65625 -7.375 C 7.21875 -6.894531 7.5 -6.210938 7.5 -5.328125 C 7.5 -4.410156 7.21875 -3.695312 6.65625 -3.1875 C 6.09375 -2.6875 5.304688 -2.4375 4.296875 -2.4375 L 2.421875 -2.4375 L 2.421875 0 L 1.0625 0 Z M 2.421875 -6.875 L 2.421875 -3.671875 L 4.234375 -3.671875 C 5.535156 -3.671875 6.1875 -4.210938 6.1875 -5.296875 C 6.1875 -6.347656 5.535156 -6.875 4.234375 -6.875 Z M 2.421875 -6.875 "/></g></g></g><g fill="#000000" fill-opacity="1"><g transform="translate(209.191686, 214.735503)"><g><path d="M 2.421875 0 L 1.0625 0 L 1.0625 -8.09375 L 2.421875 -8.09375 Z M 2.421875 0 "/></g></g></g><g fill="#000000" fill-opacity="1"><g transform="translate(214.033979, 214.735503)"><g><path d="M 6.59375 -6.875 L 4.03125 -6.875 L 4.03125 0 L 2.65625 0 L 2.65625 -6.875 L 0.109375 -6.875 L 0.109375 -8.09375 L 6.59375 -8.09375 Z M 6.59375 -6.875 "/></g></g></g><g fill="#000000" fill-opacity="1"><g transform="translate(222.076897, 214.735503)"><g><path d="M 6.296875 -1.828125 L 2.203125 -1.828125 L 1.4375 0 L 0.015625 0 L 3.578125 -8.09375 L 4.984375 -8.09375 L 8.515625 0 L 7.0625 0 Z M 5.765625 -3.046875 L 4.25 -6.640625 L 2.71875 -3.046875 Z M 5.765625 -3.046875 "/></g></g></g><g fill="#000000" fill-opacity="1"><g transform="translate(231.956996, 214.735503)"><g><path d="M 2.421875 -1.234375 L 5.9375 -1.234375 L 5.9375 0 L 1.0625 0 L 1.0625 -8.09375 L 2.421875 -8.09375 Z M 2.421875 -1.234375 "/></g></g></g></svg>